<svg xmlns="http://www.w3.org/2000/svg" xmlns:xlink="http://www.w3.org/1999/xlink" width="500" zoomAndPan="magnify" viewBox="0 0 375 374.999991" height="500" preserveAspectRatio="xMidYMid meet" version="1.0"><defs><clipPath id="01de47287b"><path d="M 205.75 178.15625 L 215.5 178.15625 L 215.5 339.40625 L 205.75 339.40625 Z M 205.75 178.15625 " clip-rule="nonzero"/></clipPath><clipPath id="562dd3c081"><path d="M 199.800781 178 L 209.550781 178 L 209.550781 336 L 199.800781 336 Z M 199.800781 178 " clip-rule="nonzero"/></clipPath></defs><g clip-path="url(#01de47287b)"><path fill="#ffffff" d="M 205.804688 229.140625 L 215.445312 239.8125 L 215.445312 233.113281 L 205.804688 222.441406 Z M 205.804688 240.226562 L 215.445312 250.898438 L 215.445312 244.199219 L 205.804688 233.527344 Z M 205.804688 251.253906 L 215.445312 261.921875 L 215.445312 255.222656 L 205.804688 244.554688 Z M 205.804688 262.339844 L 215.445312 273.007812 L 215.445312 266.308594 L 205.804688 255.640625 Z M 205.804688 273.363281 L 215.445312 284.035156 L 215.445312 277.335938 L 205.804688 266.667969 Z M 205.804688 284.449219 L 215.445312 295.121094 L 215.445312 288.421875 L 205.804688 277.753906 Z M 205.804688 295.535156 L 215.445312 306.207031 L 215.445312 299.507812 L 205.804688 288.839844 Z M 205.804688 306.5625 L 215.445312 317.234375 L 215.445312 310.535156 L 205.804688 299.863281 Z M 205.804688 317.648438 L 215.445312 328.320312 L 215.445312 321.621094 L 205.804688 310.949219 Z M 205.804688 328.734375 L 215.445312 339.40625 L 215.445312 332.707031 L 205.804688 322.035156 Z M 205.804688 218.054688 L 215.445312 228.726562 L 215.445312 222.027344 L 205.804688 211.355469 Z M 205.804688 207.027344 L 215.445312 217.699219 L 215.445312 211 L 205.804688 200.328125 Z M 205.804688 195.941406 L 215.445312 206.613281 L 215.445312 199.914062 L 205.804688 189.242188 Z M 205.804688 184.855469 L 215.445312 195.527344 L 215.445312 188.828125 L 205.804688 178.15625 Z M 205.804688 184.855469 " fill-opacity="1" fill-rule="nonzero"/></g><g clip-path="url(#562dd3c081)"><path fill="#ffffff" d="M 199.800781 228.363281 L 209.492188 239.023438 L 209.492188 232.167969 L 199.800781 221.507812 Z M 209.324219 232.222656 L 209.324219 238.386719 L 200.082031 228.25 L 200.082031 222.085938 Z M 199.800781 239.136719 L 209.492188 249.792969 L 209.492188 242.9375 L 199.800781 232.28125 Z M 209.324219 242.996094 L 209.324219 249.160156 L 200.082031 239.023438 L 200.082031 232.859375 Z M 199.800781 249.910156 L 209.492188 260.566406 L 209.492188 253.710938 L 199.800781 243.054688 Z M 209.324219 253.769531 L 209.324219 259.933594 L 200.082031 249.792969 L 200.082031 243.628906 Z M 199.800781 260.683594 L 209.492188 271.339844 L 209.492188 264.484375 L 199.800781 253.828125 Z M 209.324219 264.542969 L 209.324219 270.707031 L 200.082031 260.566406 L 200.082031 254.402344 Z M 199.800781 271.398438 L 209.550781 282.054688 L 209.550781 275.199219 L 199.855469 264.542969 L 199.855469 271.398438 Z M 209.324219 275.316406 L 209.324219 281.480469 L 200.082031 271.339844 L 200.082031 265.175781 Z M 199.800781 282.171875 L 209.550781 292.828125 L 209.550781 285.972656 L 199.855469 275.316406 L 199.855469 282.171875 Z M 209.324219 286.085938 L 209.324219 292.253906 L 200.082031 282.113281 L 200.082031 275.949219 Z M 199.800781 292.941406 L 209.550781 303.601562 L 209.550781 296.746094 L 199.800781 286.085938 Z M 209.324219 296.804688 L 209.324219 303.023438 L 200.082031 292.886719 L 200.082031 286.722656 Z M 199.800781 303.714844 L 209.550781 314.375 L 209.550781 307.519531 L 199.800781 296.859375 Z M 209.324219 307.574219 L 209.324219 313.738281 L 200.082031 303.601562 L 200.082031 297.4375 Z M 199.800781 314.488281 L 209.550781 325.089844 L 209.550781 318.234375 L 199.800781 307.632812 Z M 209.324219 318.347656 L 209.324219 324.511719 L 200.082031 314.375 L 200.082031 308.210938 Z M 199.800781 325.261719 L 209.550781 335.863281 L 209.550781 329.007812 L 199.800781 318.40625 Z M 209.324219 329.121094 L 209.324219 335.285156 L 200.082031 325.144531 L 200.082031 318.980469 Z M 199.800781 217.589844 L 209.492188 228.25 L 209.492188 221.394531 L 199.800781 210.734375 Z M 209.324219 221.507812 L 209.324219 227.671875 L 200.082031 217.535156 L 200.082031 211.371094 Z M 199.800781 206.820312 L 209.492188 217.476562 L 209.492188 210.621094 L 199.800781 199.964844 Z M 209.324219 210.734375 L 209.324219 216.898438 L 200.082031 206.761719 L 200.082031 200.597656 Z M 199.800781 196.101562 L 209.492188 206.761719 L 209.492188 199.90625 L 199.800781 189.246094 Z M 209.324219 199.964844 L 209.324219 206.128906 L 200.082031 195.988281 L 200.082031 189.824219 Z M 199.800781 185.332031 L 209.492188 195.988281 L 209.492188 189.132812 L 199.800781 178.476562 Z M 209.324219 189.191406 L 209.324219 195.355469 L 200.082031 185.214844 L 200.082031 179.050781 Z M 209.324219 189.191406 " fill-opacity="1" fill-rule="nonzero"/></g></svg>