<svg xmlns="http://www.w3.org/2000/svg" xmlns:xlink="http://www.w3.org/1999/xlink" width="500" zoomAndPan="magnify" viewBox="0 0 375 374.999991" height="500" preserveAspectRatio="xMidYMid meet" version="1.0"><defs><clipPath id="ea1bd662e0"><path d="M 0 36 L 328 36 L 328 363.339844 L 0 363.339844 Z M 0 36 " clip-rule="nonzero"/></clipPath></defs><path fill="#800000" d="M 72.167969 177.210938 C 72.570312 172.5625 74.511719 168.449219 77.367188 164.703125 C 87.417969 151.496094 109.945312 145.441406 125.707031 155.183594 C 134.988281 160.925781 142.433594 168.308594 148.628906 177.046875 C 153.777344 184.304688 158.425781 191.921875 163.429688 199.585938 C 166.925781 194.628906 170.453125 189.535156 174.066406 184.5 C 205.113281 141.277344 239.199219 100.703125 278.738281 64.933594 C 302.996094 42.996094 330.828125 26.695312 360.769531 13.808594 C 365.949219 11.574219 370.261719 12.445312 374.703125 16.929688 C 372.671875 18.828125 370.648438 20.699219 368.640625 22.597656 C 342.488281 47.285156 316.902344 72.546875 293.675781 100.019531 C 280.382812 115.734375 268.058594 132.265625 255.378906 148.492188 C 229.84375 181.167969 210.734375 217.925781 189.03125 253.042969 C 180.65625 266.597656 172.355469 280.207031 163.964844 293.757812 C 160.632812 299.140625 156.246094 299.066406 152.898438 293.5625 C 142.046875 275.699219 133.488281 256.722656 125.402344 237.492188 C 118.648438 221.4375 111.0625 205.773438 101.429688 191.183594 C 96.660156 183.96875 91.046875 178.035156 81.816406 177.246094 C 78.699219 176.988281 75.53125 177.210938 72.167969 177.210938 Z M 72.167969 177.210938 " fill-opacity="1" fill-rule="nonzero"/><g clip-path="url(#ea1bd662e0)"><path fill="#800000" d="M 306.996094 121.300781 L 281.558594 146.734375 C 288.90625 162.953125 292.984375 180.957031 292.984375 199.921875 C 292.984375 271.335938 235.09375 329.214844 163.667969 329.214844 C 92.242188 329.214844 34.355469 271.335938 34.355469 199.921875 C 34.355469 128.507812 92.242188 70.628906 163.667969 70.628906 C 181.527344 70.628906 198.523438 74.25 213.984375 80.789062 L 239.609375 55.167969 C 216.925781 43.242188 191.078125 36.496094 163.667969 36.496094 C 73.398438 36.496094 0.214844 109.664062 0.214844 199.921875 C 0.214844 290.179688 73.398438 363.339844 163.667969 363.339844 C 253.941406 363.339844 327.121094 290.171875 327.121094 199.914062 C 327.121094 171.425781 319.824219 144.625 306.996094 121.300781 Z M 306.996094 121.300781 " fill-opacity="1" fill-rule="nonzero"/></g></svg>